<?xml version="1.0" encoding="UTF-8" standalone="no"?>
<!DOCTYPE svg PUBLIC "-//W3C//DTD SVG 1.1//EN"
 "http://www.w3.org/Graphics/SVG/1.1/DTD/svg11.dtd">
<!-- Generated by graphviz version 2.43.0 (0)
 -->
<!-- Title: G Pages: 1 -->
<svg width="730pt" height="216pt"
 viewBox="0.00 0.00 729.62 216.00" xmlns="http://www.w3.org/2000/svg" xmlns:xlink="http://www.w3.org/1999/xlink">
<g id="graph0" class="graph" transform="scale(1 1) rotate(0) translate(4 212)">
<title>G</title>
<polygon fill="white" stroke="transparent" points="-4,4 -4,-212 725.62,-212 725.62,4 -4,4"/>
<!-- Republique -->
<g id="node1" class="node">
<title>Republique</title>
<path fill="green" stroke="white" stroke-width="0.5" d="M144,-36C144,-36 180,-36 180,-36 180,-37.18 179.94,-38.36 179.83,-39.53 179.71,-40.7 179.54,-41.87 179.31,-43.02 179.08,-44.18 178.79,-45.32 178.45,-46.45 178.11,-47.58 177.71,-48.69 177.26,-49.78 176.81,-50.87 176.3,-51.93 175.75,-52.97 175.19,-54.01 174.59,-55.02 173.93,-56 173.28,-56.98 172.58,-57.93 171.83,-58.84 171.08,-59.75 170.29,-60.62 169.46,-61.46 168.62,-62.29 167.75,-63.08 166.84,-63.83 165.93,-64.58 164.98,-65.28 164,-65.93 163.02,-66.59 162.01,-67.19 160.97,-67.75 159.93,-68.3 158.87,-68.81 157.78,-69.26 156.69,-69.71 155.58,-70.11 154.45,-70.45 153.32,-70.79 152.18,-71.08 151.02,-71.31 149.87,-71.54 148.7,-71.71 147.53,-71.83 146.36,-71.94 145.18,-72 144,-72 142.82,-72 141.64,-71.94 140.47,-71.83 139.3,-71.71 138.13,-71.54 136.98,-71.31 135.82,-71.08 134.68,-70.79 133.55,-70.45 132.42,-70.11 131.31,-69.71 130.22,-69.26 129.13,-68.81 128.07,-68.3 127.03,-67.75 125.99,-67.19 124.98,-66.59 124,-65.93 123.02,-65.28 122.07,-64.58 121.16,-63.83 120.25,-63.08 119.38,-62.29 118.54,-61.46 117.71,-60.62 116.92,-59.75 116.17,-58.84 115.42,-57.93 114.72,-56.98 114.07,-56 113.41,-55.02 112.81,-54.01 112.25,-52.97 111.7,-51.93 111.19,-50.87 110.74,-49.78 110.29,-48.69 109.89,-47.58 109.55,-46.45 109.21,-45.32 108.92,-44.18 108.69,-43.02 108.46,-41.87 108.29,-40.7 108.17,-39.53 108.06,-38.36 108,-37.18 108,-36 108,-36 144,-36 144,-36"/>
<path fill="red" stroke="white" stroke-width="0.5" d="M144,-36C144,-36 108,-36 108,-36 108,-34.82 108.06,-33.64 108.17,-32.47 108.29,-31.3 108.46,-30.13 108.69,-28.98 108.92,-27.82 109.21,-26.68 109.55,-25.55 109.89,-24.42 110.29,-23.31 110.74,-22.22 111.19,-21.13 111.7,-20.07 112.25,-19.03 112.81,-17.99 113.41,-16.98 114.07,-16 114.72,-15.02 115.42,-14.07 116.17,-13.16 116.92,-12.25 117.71,-11.38 118.54,-10.54 119.38,-9.71 120.25,-8.92 121.16,-8.17 122.07,-7.42 123.02,-6.72 124,-6.07 124.98,-5.41 125.99,-4.81 127.03,-4.25 128.07,-3.7 129.13,-3.19 130.22,-2.74 131.31,-2.29 132.42,-1.89 133.55,-1.55 134.68,-1.21 135.82,-0.92 136.98,-0.69 138.13,-0.46 139.3,-0.29 140.47,-0.17 141.64,-0.06 142.82,0 144,0 145.18,0 146.36,-0.06 147.53,-0.17 148.7,-0.29 149.87,-0.46 151.02,-0.69 152.18,-0.92 153.32,-1.21 154.45,-1.55 155.58,-1.89 156.69,-2.29 157.78,-2.74 158.87,-3.19 159.93,-3.7 160.97,-4.25 162.01,-4.81 163.02,-5.41 164,-6.07 164.98,-6.72 165.93,-7.42 166.84,-8.17 167.75,-8.92 168.62,-9.71 169.46,-10.54 170.29,-11.38 171.08,-12.25 171.83,-13.16 172.58,-14.07 173.28,-15.02 173.93,-16 174.59,-16.98 175.19,-17.99 175.75,-19.03 176.3,-20.07 176.81,-21.13 177.26,-22.22 177.71,-23.31 178.11,-24.42 178.45,-25.55 178.79,-26.68 179.08,-27.82 179.31,-28.98 179.54,-30.13 179.71,-31.3 179.83,-32.47 179.94,-33.64 180,-34.82 180,-36 180,-36 144,-36 144,-36"/>
<ellipse fill="none" stroke="white" cx="144" cy="-36" rx="36" ry="36"/>
<text text-anchor="middle" x="144" y="-32.3" font-family="Calibri" font-size="14.00" fill="white">Republique</text>
</g>
<!-- BeauxArts -->
<g id="node2" class="node">
<title>BeauxArts</title>
<path fill="blue" stroke="white" stroke-width="0.5" d="M252,-126C252,-126 288,-126 288,-126 288,-127.18 287.94,-128.36 287.83,-129.53 287.71,-130.7 287.54,-131.87 287.31,-133.02 287.08,-134.18 286.79,-135.32 286.45,-136.45 286.11,-137.58 285.71,-138.69 285.26,-139.78 284.81,-140.87 284.3,-141.93 283.75,-142.97 283.19,-144.01 282.59,-145.02 281.93,-146 281.28,-146.98 280.58,-147.93 279.83,-148.84 279.08,-149.75 278.29,-150.62 277.46,-151.46 276.62,-152.29 275.75,-153.08 274.84,-153.83 273.93,-154.58 272.98,-155.28 272,-155.93 271.02,-156.59 270.01,-157.19 268.97,-157.75 267.93,-158.3 266.87,-158.81 265.78,-159.26 264.69,-159.71 263.58,-160.11 262.45,-160.45 261.32,-160.79 260.18,-161.08 259.02,-161.31 257.87,-161.54 256.7,-161.71 255.53,-161.83 254.36,-161.94 253.18,-162 252,-162 250.82,-162 249.64,-161.94 248.47,-161.83 247.3,-161.71 246.13,-161.54 244.98,-161.31 243.82,-161.08 242.68,-160.79 241.55,-160.45 240.42,-160.11 239.31,-159.71 238.22,-159.26 237.13,-158.81 236.07,-158.3 235.03,-157.75 233.99,-157.19 232.98,-156.59 232,-155.93 231.02,-155.28 230.07,-154.58 229.16,-153.83 228.25,-153.08 227.38,-152.29 226.54,-151.46 225.71,-150.62 224.92,-149.75 224.17,-148.84 223.42,-147.93 222.72,-146.98 222.07,-146 221.41,-145.02 220.81,-144.01 220.25,-142.97 219.7,-141.93 219.19,-140.87 218.74,-139.78 218.29,-138.69 217.89,-137.58 217.55,-136.45 217.21,-135.32 216.92,-134.18 216.69,-133.02 216.46,-131.87 216.29,-130.7 216.17,-129.53 216.06,-128.36 216,-127.18 216,-126 216,-126 252,-126 252,-126"/>
<path fill="red" stroke="white" stroke-width="0.5" d="M252,-126C252,-126 216,-126 216,-126 216,-124.82 216.06,-123.64 216.17,-122.47 216.29,-121.3 216.46,-120.13 216.69,-118.98 216.92,-117.82 217.21,-116.68 217.55,-115.55 217.89,-114.42 218.29,-113.31 218.74,-112.22 219.19,-111.13 219.7,-110.07 220.25,-109.03 220.81,-107.99 221.41,-106.98 222.07,-106 222.72,-105.02 223.42,-104.07 224.17,-103.16 224.92,-102.25 225.71,-101.38 226.54,-100.54 227.38,-99.71 228.25,-98.92 229.16,-98.17 230.07,-97.42 231.02,-96.72 232,-96.07 232.98,-95.41 233.99,-94.81 235.03,-94.25 236.07,-93.7 237.13,-93.19 238.22,-92.74 239.31,-92.29 240.42,-91.89 241.55,-91.55 242.68,-91.21 243.82,-90.92 244.98,-90.69 246.13,-90.46 247.3,-90.29 248.47,-90.17 249.64,-90.06 250.82,-90 252,-90 253.18,-90 254.36,-90.06 255.53,-90.17 256.7,-90.29 257.87,-90.46 259.02,-90.69 260.18,-90.92 261.32,-91.21 262.45,-91.55 263.58,-91.89 264.69,-92.29 265.78,-92.74 266.87,-93.19 267.93,-93.7 268.97,-94.25 270.01,-94.81 271.02,-95.41 272,-96.07 272.98,-96.72 273.93,-97.42 274.84,-98.17 275.75,-98.92 276.62,-99.71 277.46,-100.54 278.29,-101.38 279.08,-102.25 279.83,-103.16 280.58,-104.07 281.28,-105.02 281.93,-106 282.59,-106.98 283.19,-107.99 283.75,-109.03 284.3,-110.07 284.81,-111.13 285.26,-112.22 285.71,-113.31 286.11,-114.42 286.45,-115.55 286.79,-116.68 287.08,-117.82 287.31,-118.98 287.54,-120.13 287.71,-121.3 287.83,-122.47 287.94,-123.64 288,-124.82 288,-126 288,-126 252,-126 252,-126"/>
<ellipse fill="none" stroke="white" cx="252" cy="-126" rx="36" ry="36"/>
<text text-anchor="middle" x="252" y="-122.3" font-family="Calibri" font-size="14.00" fill="white">BeauxArts</text>
</g>
<!-- Republique&#45;&#45;BeauxArts -->
<g id="edge1" class="edge">
<title>Republique&#45;&#45;BeauxArts</title>
<path fill="none" stroke="red" stroke-width="9" d="M172.02,-58.94C187.97,-72.48 208.09,-89.56 224.03,-103.1"/>
</g>
<!-- Parlement -->
<g id="node10" class="node">
<title>Parlement</title>
<ellipse fill="green" stroke="white" cx="252" cy="-36" rx="36" ry="36"/>
<text text-anchor="middle" x="252" y="-32.3" font-family="Calibri" font-size="14.00" fill="white">Parlement</text>
</g>
<!-- Republique&#45;&#45;Parlement -->
<g id="edge11" class="edge">
<title>Republique&#45;&#45;Parlement</title>
<path fill="none" stroke="green" stroke-width="9" d="M180,-36C191.46,-36 204.19,-36 215.67,-36"/>
</g>
<!-- Strasbourg -->
<g id="node3" class="node">
<title>Strasbourg</title>
<ellipse fill="red" stroke="white" cx="360" cy="-158" rx="36" ry="36"/>
<text text-anchor="middle" x="360" y="-154.3" font-family="Calibri" font-size="14.00" fill="white">Strasbourg</text>
</g>
<!-- BeauxArts&#45;&#45;Strasbourg -->
<g id="edge2" class="edge">
<title>BeauxArts&#45;&#45;Strasbourg</title>
<path fill="none" stroke="red" stroke-width="9" d="M286.83,-136.21C299.07,-139.91 312.88,-144.08 325.13,-147.77"/>
</g>
<!-- Baud -->
<g id="node4" class="node">
<title>Baud</title>
<path fill="blue" stroke="white" stroke-width="0.5" d="M468,-126C468,-126 504,-126 504,-126 504,-127.18 503.94,-128.36 503.83,-129.53 503.71,-130.7 503.54,-131.87 503.31,-133.02 503.08,-134.18 502.79,-135.32 502.45,-136.45 502.11,-137.58 501.71,-138.69 501.26,-139.78 500.81,-140.87 500.3,-141.93 499.75,-142.97 499.19,-144.01 498.59,-145.02 497.93,-146 497.28,-146.98 496.58,-147.93 495.83,-148.84 495.08,-149.75 494.29,-150.62 493.46,-151.46 492.62,-152.29 491.75,-153.08 490.84,-153.83 489.93,-154.58 488.98,-155.28 488,-155.93 487.02,-156.59 486.01,-157.19 484.97,-157.75 483.93,-158.3 482.87,-158.81 481.78,-159.26 480.69,-159.71 479.58,-160.11 478.45,-160.45 477.32,-160.79 476.18,-161.08 475.02,-161.31 473.87,-161.54 472.7,-161.71 471.53,-161.83 470.36,-161.94 469.18,-162 468,-162 466.82,-162 465.64,-161.94 464.47,-161.83 463.3,-161.71 462.13,-161.54 460.98,-161.31 459.82,-161.08 458.68,-160.79 457.55,-160.45 456.42,-160.11 455.31,-159.71 454.22,-159.26 453.13,-158.81 452.07,-158.3 451.03,-157.75 449.99,-157.19 448.98,-156.59 448,-155.93 447.02,-155.28 446.07,-154.58 445.16,-153.83 444.25,-153.08 443.38,-152.29 442.54,-151.46 441.71,-150.62 440.92,-149.75 440.17,-148.84 439.42,-147.93 438.72,-146.98 438.07,-146 437.41,-145.02 436.81,-144.01 436.25,-142.97 435.7,-141.93 435.19,-140.87 434.74,-139.78 434.29,-138.69 433.89,-137.58 433.55,-136.45 433.21,-135.32 432.92,-134.18 432.69,-133.02 432.46,-131.87 432.29,-130.7 432.17,-129.53 432.06,-128.36 432,-127.18 432,-126 432,-126 468,-126 468,-126"/>
<path fill="red" stroke="white" stroke-width="0.5" d="M468,-126C468,-126 432,-126 432,-126 432,-124.82 432.06,-123.64 432.17,-122.47 432.29,-121.3 432.46,-120.13 432.69,-118.98 432.92,-117.82 433.21,-116.68 433.55,-115.55 433.89,-114.42 434.29,-113.31 434.74,-112.22 435.19,-111.13 435.7,-110.07 436.25,-109.03 436.81,-107.99 437.41,-106.98 438.07,-106 438.72,-105.02 439.42,-104.07 440.17,-103.16 440.92,-102.25 441.71,-101.38 442.54,-100.54 443.38,-99.71 444.25,-98.92 445.16,-98.17 446.07,-97.42 447.02,-96.72 448,-96.07 448.98,-95.41 449.99,-94.81 451.03,-94.25 452.07,-93.7 453.13,-93.19 454.22,-92.74 455.31,-92.29 456.42,-91.89 457.55,-91.55 458.68,-91.21 459.82,-90.92 460.98,-90.69 462.13,-90.46 463.3,-90.29 464.47,-90.17 465.64,-90.06 466.82,-90 468,-90 469.18,-90 470.36,-90.06 471.53,-90.17 472.7,-90.29 473.87,-90.46 475.02,-90.69 476.18,-90.92 477.32,-91.21 478.45,-91.55 479.58,-91.89 480.69,-92.29 481.78,-92.74 482.87,-93.19 483.93,-93.7 484.97,-94.25 486.01,-94.81 487.02,-95.41 488,-96.07 488.98,-96.72 489.93,-97.42 490.84,-98.17 491.75,-98.92 492.62,-99.71 493.46,-100.54 494.29,-101.38 495.08,-102.25 495.83,-103.16 496.58,-104.07 497.28,-105.02 497.93,-106 498.59,-106.98 499.19,-107.99 499.75,-109.03 500.3,-110.07 500.81,-111.13 501.26,-112.22 501.71,-113.31 502.11,-114.42 502.45,-115.55 502.79,-116.68 503.08,-117.82 503.31,-118.98 503.54,-120.13 503.71,-121.3 503.83,-122.47 503.94,-123.64 504,-124.82 504,-126 504,-126 468,-126 468,-126"/>
<ellipse fill="none" stroke="white" cx="468" cy="-126" rx="36" ry="36"/>
<text text-anchor="middle" x="468" y="-122.3" font-family="Calibri" font-size="14.00" fill="white">Baud</text>
</g>
<!-- BeauxArts&#45;&#45;Baud -->
<g id="edge7" class="edge">
<title>BeauxArts&#45;&#45;Baud</title>
<path fill="none" stroke="blue" stroke-width="9" d="M287.5,-118.39C299.04,-116.19 312.02,-114.09 324,-113 355.87,-110.11 364.13,-110.11 396,-113 407.98,-114.09 420.96,-116.19 432.5,-118.39"/>
</g>
<!-- Strasbourg&#45;&#45;Baud -->
<g id="edge3" class="edge">
<title>Strasbourg&#45;&#45;Baud</title>
<path fill="none" stroke="red" stroke-width="9" d="M394.83,-147.79C407.07,-144.09 420.88,-139.92 433.13,-136.23"/>
</g>
<!-- INSA -->
<g id="node5" class="node">
<title>INSA</title>
<path fill="blue" stroke="white" stroke-width="0.5" d="M576,-126C576,-126 612,-126 612,-126 612,-127.18 611.94,-128.36 611.83,-129.53 611.71,-130.7 611.54,-131.87 611.31,-133.02 611.08,-134.18 610.79,-135.32 610.45,-136.45 610.11,-137.58 609.71,-138.69 609.26,-139.78 608.81,-140.87 608.3,-141.93 607.75,-142.97 607.19,-144.01 606.59,-145.02 605.93,-146 605.28,-146.98 604.58,-147.93 603.83,-148.84 603.08,-149.75 602.29,-150.62 601.46,-151.46 600.62,-152.29 599.75,-153.08 598.84,-153.83 597.93,-154.58 596.98,-155.28 596,-155.93 595.02,-156.59 594.01,-157.19 592.97,-157.75 591.93,-158.3 590.87,-158.81 589.78,-159.26 588.69,-159.71 587.58,-160.11 586.45,-160.45 585.32,-160.79 584.18,-161.08 583.02,-161.31 581.87,-161.54 580.7,-161.71 579.53,-161.83 578.36,-161.94 577.18,-162 576,-162 574.82,-162 573.64,-161.94 572.47,-161.83 571.3,-161.71 570.13,-161.54 568.98,-161.31 567.82,-161.08 566.68,-160.79 565.55,-160.45 564.42,-160.11 563.31,-159.71 562.22,-159.26 561.13,-158.81 560.07,-158.3 559.03,-157.75 557.99,-157.19 556.98,-156.59 556,-155.93 555.02,-155.28 554.07,-154.58 553.16,-153.83 552.25,-153.08 551.38,-152.29 550.54,-151.46 549.71,-150.62 548.92,-149.75 548.17,-148.84 547.42,-147.93 546.72,-146.98 546.07,-146 545.41,-145.02 544.81,-144.01 544.25,-142.97 543.7,-141.93 543.19,-140.87 542.74,-139.78 542.29,-138.69 541.89,-137.58 541.55,-136.45 541.21,-135.32 540.92,-134.18 540.69,-133.02 540.46,-131.87 540.29,-130.7 540.17,-129.53 540.06,-128.36 540,-127.18 540,-126 540,-126 576,-126 576,-126"/>
<path fill="red" stroke="white" stroke-width="0.5" d="M576,-126C576,-126 540,-126 540,-126 540,-124.82 540.06,-123.64 540.17,-122.47 540.29,-121.3 540.46,-120.13 540.69,-118.98 540.92,-117.82 541.21,-116.68 541.55,-115.55 541.89,-114.42 542.29,-113.31 542.74,-112.22 543.19,-111.13 543.7,-110.07 544.25,-109.03 544.81,-107.99 545.41,-106.98 546.07,-106 546.72,-105.02 547.42,-104.07 548.17,-103.16 548.92,-102.25 549.71,-101.38 550.54,-100.54 551.38,-99.71 552.25,-98.92 553.16,-98.17 554.07,-97.42 555.02,-96.72 556,-96.07 556.98,-95.41 557.99,-94.81 559.03,-94.25 560.07,-93.7 561.13,-93.19 562.22,-92.74 563.31,-92.29 564.42,-91.89 565.55,-91.55 566.68,-91.21 567.82,-90.92 568.98,-90.69 570.13,-90.46 571.3,-90.29 572.47,-90.17 573.64,-90.06 574.82,-90 576,-90 577.18,-90 578.36,-90.06 579.53,-90.17 580.7,-90.29 581.87,-90.46 583.02,-90.69 584.18,-90.92 585.32,-91.21 586.45,-91.55 587.58,-91.89 588.69,-92.29 589.78,-92.74 590.87,-93.19 591.93,-93.7 592.97,-94.25 594.01,-94.81 595.02,-95.41 596,-96.07 596.98,-96.72 597.93,-97.42 598.84,-98.17 599.75,-98.92 600.62,-99.71 601.46,-100.54 602.29,-101.38 603.08,-102.25 603.83,-103.16 604.58,-104.07 605.28,-105.02 605.93,-106 606.59,-106.98 607.19,-107.99 607.75,-109.03 608.3,-110.07 608.81,-111.13 609.26,-112.22 609.71,-113.31 610.11,-114.42 610.45,-115.55 610.79,-116.68 611.08,-117.82 611.31,-118.98 611.54,-120.13 611.71,-121.3 611.83,-122.47 611.94,-123.64 612,-124.82 612,-126 612,-126 576,-126 576,-126"/>
<ellipse fill="none" stroke="white" cx="576" cy="-126" rx="36" ry="36"/>
<text text-anchor="middle" x="576" y="-122.3" font-family="Calibri" font-size="14.00" fill="white">INSA</text>
</g>
<!-- Baud&#45;&#45;INSA -->
<g id="edge4" class="edge">
<title>Baud&#45;&#45;INSA</title>
<path fill="none" stroke="red" stroke-width="9" d="M503.71,-119.62C515.42,-119.13 528.49,-119.13 540.21,-119.62"/>
</g>
<!-- Baud&#45;&#45;INSA -->
<g id="edge8" class="edge">
<title>Baud&#45;&#45;INSA</title>
<path fill="none" stroke="blue" stroke-width="9" d="M503.71,-132.38C515.42,-132.87 528.49,-132.87 540.21,-132.38"/>
</g>
<!-- IUT -->
<g id="node6" class="node">
<title>IUT</title>
<ellipse fill="red" stroke="white" cx="684.81" cy="-172" rx="36" ry="36"/>
<text text-anchor="middle" x="684.81" y="-168.3" font-family="Calibri" font-size="14.00" fill="white">IUT</text>
</g>
<!-- INSA&#45;&#45;IUT -->
<g id="edge5" class="edge">
<title>INSA&#45;&#45;IUT</title>
<path fill="none" stroke="red" stroke-width="9" d="M609.34,-139.93C622.72,-145.69 638.21,-152.36 651.58,-158.12"/>
</g>
<!-- ChampBlanc -->
<g id="node8" class="node">
<title>ChampBlanc</title>
<ellipse fill="blue" stroke="white" cx="684.81" cy="-81" rx="36.62" ry="36.62"/>
<text text-anchor="middle" x="684.81" y="-77.3" font-family="Calibri" font-size="14.00" fill="white">ChampBlanc</text>
</g>
<!-- INSA&#45;&#45;ChampBlanc -->
<g id="edge9" class="edge">
<title>INSA&#45;&#45;ChampBlanc</title>
<path fill="none" stroke="blue" stroke-width="9" d="M609.34,-112.38C622.35,-106.89 637.36,-100.57 650.47,-95.04"/>
</g>
<!-- Gare -->
<g id="node7" class="node">
<title>Gare</title>
<ellipse fill="blue" stroke="white" cx="144" cy="-126" rx="36" ry="36"/>
<text text-anchor="middle" x="144" y="-122.3" font-family="Calibri" font-size="14.00" fill="white">Gare</text>
</g>
<!-- Gare&#45;&#45;BeauxArts -->
<g id="edge6" class="edge">
<title>Gare&#45;&#45;BeauxArts</title>
<path fill="none" stroke="blue" stroke-width="9" d="M180,-126C191.46,-126 204.19,-126 215.67,-126"/>
</g>
<!-- CDG -->
<g id="node9" class="node">
<title>CDG</title>
<ellipse fill="green" stroke="white" cx="36" cy="-36" rx="36" ry="36"/>
<text text-anchor="middle" x="36" y="-32.3" font-family="Calibri" font-size="14.00" fill="white">CDG</text>
</g>
<!-- CDG&#45;&#45;Republique -->
<g id="edge10" class="edge">
<title>CDG&#45;&#45;Republique</title>
<path fill="none" stroke="green" stroke-width="9" d="M72,-36C83.46,-36 96.19,-36 107.67,-36"/>
</g>
</g>
</svg>
